<svg width="90" height="90" viewBox="0 0 90 90" fill="none" xmlns="http://www.w3.org/2000/svg">
<circle cx="45" cy="45" r="45" fill="#D3E2F8" fill-opacity="0.5"/>
<path d="M60.7482 58.8183C61.905 58.8183 63.0359 58.4753 63.9978 57.8326C64.9596 57.1898 65.7093 56.2763 66.152 55.2075C66.5948 54.1388 66.7106 52.9627 66.4849 51.8281C66.2592 50.6935 65.7021 49.6512 64.8841 48.8332C64.0661 48.0152 63.0239 47.4581 61.8893 47.2324C60.7547 47.0068 59.5786 47.1226 58.5098 47.5653C57.441 48.008 56.5275 48.7577 55.8848 49.7196C55.2421 50.6815 54.899 51.8123 54.899 52.9692C54.9012 54.5198 55.5181 56.0063 56.6145 57.1028C57.711 58.1993 59.1975 58.8162 60.7482 58.8183ZM60.7482 49.4013C61.4538 49.4013 62.1436 49.6106 62.7304 50.0026C63.3171 50.3946 63.7744 50.9519 64.0444 51.6038C64.3145 52.2558 64.3851 52.9731 64.2475 53.6652C64.1098 54.3573 63.77 54.9931 63.271 55.4921C62.7721 55.991 62.1363 56.3308 61.4442 56.4685C60.7521 56.6062 60.0347 56.5355 59.3828 56.2655C58.7309 55.9954 58.1736 55.5381 57.7816 54.9514C57.3895 54.3647 57.1803 53.6748 57.1803 52.9692C57.1821 52.0238 57.5587 51.1177 58.2275 50.4495C58.8963 49.7814 59.8028 49.4056 60.7482 49.4047V49.4013ZM26.6389 58.8183C27.7958 58.8183 28.9266 58.4753 29.8885 57.8326C30.8504 57.1898 31.6001 56.2763 32.0428 55.2075C32.4855 54.1388 32.6013 52.9627 32.3756 51.8281C32.15 50.6935 31.5929 49.6512 30.7749 48.8332C29.9569 48.0152 28.9146 47.4581 27.78 47.2324C26.6454 47.0068 25.4693 47.1226 24.4006 47.5653C23.3318 48.008 22.4183 48.7577 21.7755 49.7196C21.1328 50.6815 20.7898 51.8123 20.7898 52.9692C20.7919 54.5198 21.4088 56.0063 22.5053 57.1028C23.6018 58.1993 25.0883 58.8162 26.6389 58.8183ZM26.6389 49.4013C27.3446 49.4013 28.0344 49.6106 28.6211 50.0026C29.2079 50.3946 29.6652 50.9519 29.9352 51.6038C30.2052 52.2558 30.2759 52.9731 30.1382 53.6652C30.0006 54.3573 29.6608 54.9931 29.1618 55.4921C28.6628 55.991 28.0271 56.3308 27.335 56.4685C26.6429 56.6062 25.9255 56.5355 25.2735 56.2655C24.6216 55.9954 24.0644 55.5381 23.6723 54.9514C23.2803 54.3647 23.071 53.6748 23.071 52.9692C23.0732 52.0239 23.4498 51.118 24.1186 50.4499C24.7873 49.7818 25.6936 49.4059 26.6389 49.4047V49.4013Z" fill="#6398E7"/>
<path d="M31.3828 54.1121H54.8625C55.1651 54.1121 55.4552 53.9919 55.6691 53.778C55.883 53.5641 56.0032 53.2739 56.0032 52.9714C56.0032 52.6689 55.883 52.3788 55.6691 52.1649C55.4552 51.951 55.1651 51.8308 54.8625 51.8308H31.3828C31.0803 51.8308 30.7901 51.951 30.5762 52.1649C30.3623 52.3788 30.2422 52.6689 30.2422 52.9714C30.2422 53.2739 30.3623 53.5641 30.5762 53.778C30.7901 53.9919 31.0803 54.1121 31.3828 54.1121Z" fill="#6398E7"/>
<path d="M65.4818 54.4429H71.1849C71.9939 54.4433 72.793 54.2647 73.5247 53.9199C74.2565 53.575 74.9029 53.0724 75.4174 52.4482C75.932 51.8239 76.3019 51.0935 76.5008 50.3094C76.6996 49.5252 76.7224 48.7068 76.5675 47.9128L75.9972 44.9985C75.7916 43.9252 75.2686 42.9383 74.4958 42.1655C73.7231 41.3928 72.7362 40.8697 71.6629 40.6641C71.6215 40.6555 71.5796 40.6498 71.5374 40.647L63.577 40.0025C62.1473 39.7247 60.8221 39.0572 59.7479 38.0737C57.7586 36.2236 50.5681 30.1852 41.572 30.1852C30.2034 30.1852 23.7965 35.4731 23.1019 36.0776L19.9675 38.3064C19.2196 38.5842 18.456 38.8173 17.6805 39.0045C14.1765 39.9581 12.3481 40.5249 12.3458 42.0169L12.3321 49.545C12.3311 50.1448 12.4483 50.739 12.6771 51.2935C12.9059 51.8479 13.2418 52.3518 13.6656 52.7763C14.0894 53.2009 14.5927 53.5376 15.1468 53.7674C15.7008 53.9972 16.2948 54.1155 16.8946 54.1155H20.7579C21.0604 54.1155 21.3505 53.9953 21.5644 53.7814C21.7784 53.5675 21.8985 53.2774 21.8985 52.9749C21.8985 52.6724 21.7784 52.3822 21.5644 52.1683C21.3505 51.9544 21.0604 51.8342 20.7579 51.8342H16.8969C16.2919 51.8342 15.7116 51.5939 15.2838 51.1661C14.856 50.7383 14.6156 50.158 14.6156 49.553L14.6282 42.3979C15.811 41.904 17.0316 41.5062 18.2782 41.2082C19.3256 41.007 20.3388 40.657 21.2872 40.1691L24.4706 37.9049C24.5072 37.8801 24.5419 37.8527 24.5744 37.8228C24.6326 37.7715 30.6939 32.4699 41.5697 32.4699C49.7343 32.4699 56.3568 38.0407 58.1932 39.7482C59.5938 41.036 61.3274 41.9053 63.1971 42.2576C63.2388 42.2666 63.2812 42.2724 63.3238 42.2747L71.2819 42.9191C71.8964 43.0497 72.4588 43.3585 72.8987 43.8071C73.3385 44.2557 73.6363 44.8241 73.7548 45.441L74.3251 48.3565C74.4153 48.8201 74.4018 49.298 74.2855 49.7558C74.1693 50.2136 73.9532 50.6401 73.6527 51.0045C73.3522 51.369 72.9749 51.6624 72.5476 51.8639C72.1204 52.0653 71.6539 52.1697 71.1815 52.1696H65.4784C65.1759 52.1696 64.8858 52.2898 64.6718 52.5037C64.4579 52.7176 64.3378 53.0077 64.3378 53.3102C64.3378 53.6127 64.4579 53.9028 64.6718 54.1168C64.8858 54.3307 65.1759 54.4508 65.4784 54.4508L65.4818 54.4429Z" fill="#6398E7"/>
<path d="M44.1864 42.3637H56.6648C56.9076 42.3634 57.144 42.2857 57.3396 42.1419C57.5352 41.998 57.6798 41.7955 57.7523 41.5638C57.8249 41.332 57.8216 41.0832 57.7429 40.8535C57.6642 40.6238 57.5143 40.4252 57.315 40.2866C56.9504 40.0308 56.6046 39.7491 56.2805 39.4437C52.5914 35.9902 47.8098 33.9369 42.7652 33.6402C42.5941 33.63 42.423 33.6591 42.2649 33.7251C42.1067 33.7911 41.9658 33.8924 41.8527 34.0211C41.7387 34.149 41.655 34.301 41.6079 34.4657C41.5607 34.6303 41.5512 34.8035 41.5801 34.9724C41.9499 37.2259 42.4662 39.453 43.1256 41.6394C43.2092 41.8527 43.3552 42.0358 43.5444 42.165C43.7336 42.2942 43.9573 42.3634 44.1864 42.3637ZM53.5258 40.0824H45.0088C44.6917 38.9863 44.345 37.3381 44.0963 36.0526C47.5454 36.5209 50.8036 37.9134 53.5258 40.0824ZM33.03 42.934H40.1018C40.2756 42.9338 40.4471 42.894 40.6032 42.8175C40.7592 42.7409 40.8957 42.6298 41.0023 42.4924C41.1088 42.3551 41.1825 42.1952 41.2178 42.025C41.2531 41.8548 41.2491 41.6788 41.206 41.5105L39.4152 34.5298C39.3457 34.2654 39.1841 34.0345 38.9596 33.8785C38.735 33.7225 38.4622 33.6518 38.1901 33.6789C35.7895 33.9833 33.4328 34.5682 31.1685 35.4218C30.9025 35.522 30.6835 35.7178 30.5544 35.971C30.4253 36.2242 30.3953 36.5165 30.4704 36.7906L31.9304 42.0967C31.9968 42.3374 32.1403 42.5496 32.3389 42.7008C32.5376 42.8521 32.7803 42.934 33.03 42.934ZM38.6316 40.6527H33.8991L32.9524 37.2103C34.4238 36.7199 35.9303 36.342 37.459 36.08L38.6316 40.6527ZM26.4953 43.4587L29.2203 43.4472C29.3915 43.4467 29.5605 43.4075 29.7146 43.3327C29.8687 43.2579 30.0039 43.1494 30.1103 43.0152C30.2167 42.8809 30.2915 42.7245 30.3292 42.5574C30.3668 42.3903 30.3663 42.2169 30.3278 42.05L29.2214 37.2594C29.1824 37.0912 29.1058 36.934 28.9973 36.7997C28.8888 36.6655 28.7512 36.5576 28.5949 36.4842C28.4386 36.4108 28.2677 36.3739 28.0951 36.3762C27.9224 36.3785 27.7526 36.4199 27.5983 36.4974C26.1864 37.2186 24.9984 38.3119 24.1627 39.6592C24.0612 39.8391 24.0104 40.0433 24.0159 40.2498C24.0213 40.4563 24.0827 40.6575 24.1935 40.8318L25.5281 42.9305C25.6315 43.0931 25.7745 43.2268 25.9437 43.3192C26.1128 43.4115 26.3026 43.4595 26.4953 43.4587ZM27.7888 41.1774H27.1204L26.533 40.2535C26.7867 39.9386 27.068 39.647 27.3736 39.3821L27.7888 41.1774ZM37.2457 51.2069H44.3632C44.6657 51.2069 44.9558 51.0868 45.1697 50.8728C45.3837 50.6589 45.5038 50.3688 45.5038 50.0663C45.5038 49.7638 45.3837 49.4737 45.1697 49.2598C44.9558 49.0458 44.6657 48.9257 44.3632 48.9257H37.2457C36.9432 48.9257 36.6531 49.0458 36.4392 49.2598C36.2253 49.4737 36.1051 49.7638 36.1051 50.0663C36.1051 50.3688 36.2253 50.6589 36.4392 50.8728C36.6531 51.0868 36.9432 51.2069 37.2457 51.2069ZM71.1394 48.9371H75.1589C75.4614 48.9371 75.7516 48.8169 75.9655 48.603C76.1794 48.3891 76.2996 48.099 76.2996 47.7965C76.2996 47.4939 76.1794 47.2038 75.9655 46.9899C75.7516 46.776 75.4614 46.6558 75.1589 46.6558H71.761L71.3207 45.9657H74.2613C74.5638 45.9657 74.8539 45.8456 75.0678 45.6317C75.2817 45.4178 75.4019 45.1276 75.4019 44.8251C75.4019 44.5226 75.2817 44.2325 75.0678 44.0186C74.8539 43.8047 74.5638 43.6845 74.2613 43.6845H69.2425C69.0379 43.6846 68.8371 43.7397 68.6611 43.844C68.4851 43.9484 68.3404 44.0982 68.2422 44.2777C68.144 44.4572 68.0959 44.6598 68.1029 44.8643C68.1099 45.0687 68.1718 45.2676 68.2821 45.4399L70.179 48.4112C70.2821 48.5724 70.4241 48.7051 70.592 48.7969C70.7598 48.8888 70.948 48.937 71.1394 48.9371Z" fill="#6398E7"/>
</svg>
