<svg width="91" height="90" viewBox="0 0 91 90" fill="none" xmlns="http://www.w3.org/2000/svg">
<circle cx="45.5" cy="45" r="45" fill="#D3E2F8" fill-opacity="0.5"/>
<g clip-path="url(#clip0_6_14)">
<path fill-rule="evenodd" clip-rule="evenodd" d="M12.5469 23.5626C12.2692 23.5626 12.0029 23.6727 11.8066 23.8691C11.6103 24.0654 11.5 24.3318 11.5 24.6095V58.1095C11.5 58.3871 11.6103 58.6533 11.8066 58.8497C12.0029 59.046 12.2692 59.1564 12.5469 59.1564H22.1362C22.0881 59.4914 22.0316 59.8304 22.0316 60.1779C22.0316 64.2147 25.3229 67.5061 29.3597 67.5061C33.3922 67.5061 36.6878 64.2147 36.6878 60.1779C36.6878 59.8304 36.6271 59.4935 36.581 59.1564H54.4219C54.4923 59.1551 54.5625 59.1465 54.6312 59.1311H56.6831C56.6329 59.4765 56.5784 59.822 56.5784 60.1779C56.5784 64.2126 59.8698 67.5061 63.9066 67.5061C67.9391 67.5061 71.2347 64.2126 71.2347 60.1779C71.2347 59.822 71.1761 59.4765 71.1279 59.1311H77.4531C77.7308 59.1311 77.997 59.021 78.1934 58.8246C78.3897 58.6283 78.5 58.3618 78.5 58.0842V51.8804C78.5022 51.856 78.5036 51.8318 78.5042 51.8073V47.607C78.5045 47.5721 78.5031 47.5373 78.5 47.5025V41.3321C78.5008 41.0782 78.4093 40.8328 78.2425 40.6413C78.2041 40.5826 78.1599 40.5279 78.1106 40.478L67.2628 28.0829C67.1643 27.9707 67.0428 27.8808 66.9067 27.8194C66.7706 27.758 66.6228 27.7265 66.4735 27.7269H55.4687V24.6095C55.4687 24.3318 55.3585 24.0654 55.1621 23.8691C54.9658 23.6727 54.6995 23.5626 54.4219 23.5626H12.5469ZM13.5937 25.6564H53.375V48.6623H13.5937V25.6564ZM17.8252 27.7248C17.5483 27.7292 17.2844 27.8432 17.0913 28.0417C16.8983 28.2403 16.7917 28.5073 16.7951 28.7842V45.5217C16.7951 45.7993 16.9054 46.0658 17.1017 46.2621C17.298 46.4585 17.5643 46.5686 17.842 46.5686C18.1196 46.5686 18.3859 46.4585 18.5822 46.2621C18.7785 46.0658 18.8888 45.7993 18.8888 45.5217V28.7842C18.8905 28.6443 18.8642 28.5054 18.8113 28.3758C18.7583 28.2462 18.68 28.1288 18.5808 28.03C18.4817 27.9312 18.3637 27.8531 18.2339 27.8007C18.1041 27.7483 17.9652 27.7226 17.8252 27.7248ZM24.1065 27.7248C23.8295 27.7292 23.5657 27.8432 23.3726 28.0417C23.1795 28.2403 23.073 28.5073 23.0763 28.7842V45.5217C23.0763 45.7993 23.1866 46.0658 23.383 46.2621C23.5793 46.4585 23.8456 46.5686 24.1232 46.5686C24.4009 46.5686 24.6671 46.4585 24.8635 46.2621C25.0598 46.0658 25.1701 45.7993 25.1701 45.5217V28.7842C25.1718 28.6443 25.1454 28.5054 25.0925 28.3758C25.0396 28.2462 24.9612 28.1288 24.8621 28.03C24.7629 27.9312 24.645 27.8531 24.5152 27.8007C24.3854 27.7483 24.2464 27.7226 24.1065 27.7248ZM30.3877 27.7248C30.1108 27.7292 29.8469 27.8432 29.6538 28.0417C29.4608 28.2403 29.3542 28.5073 29.3576 28.7842V45.5217C29.3576 45.7993 29.4679 46.0658 29.6642 46.2621C29.8605 46.4585 30.1268 46.5686 30.4045 46.5686C30.6821 46.5686 30.9484 46.4585 31.1447 46.2621C31.341 46.0658 31.4513 45.7993 31.4513 45.5217V28.7842C31.453 28.6443 31.4267 28.5054 31.3738 28.3758C31.3208 28.2462 31.2425 28.1288 31.1433 28.03C31.0442 27.9312 30.9262 27.8531 30.7964 27.8007C30.6666 27.7483 30.5277 27.7226 30.3877 27.7248ZM36.669 27.7248C36.392 27.7292 36.1282 27.8432 35.9351 28.0417C35.742 28.2403 35.6355 28.5073 35.6388 28.7842V45.5217C35.6388 45.7993 35.7491 46.0658 35.9455 46.2621C36.1418 46.4585 36.4081 46.5686 36.6857 46.5686C36.9634 46.5686 37.2296 46.4585 37.426 46.2621C37.6223 46.0658 37.7326 45.7993 37.7326 45.5217V28.7842C37.7343 28.6443 37.7079 28.5054 37.655 28.3758C37.6021 28.2462 37.5237 28.1288 37.4246 28.03C37.3254 27.9312 37.2075 27.8531 37.0777 27.8007C36.9479 27.7483 36.8089 27.7226 36.669 27.7248ZM42.9502 27.7248C42.6733 27.7292 42.4094 27.8432 42.2163 28.0417C42.0233 28.2403 41.9167 28.5073 41.9201 28.7842V45.5217C41.9201 45.7993 42.0304 46.0658 42.2267 46.2621C42.423 46.4585 42.6893 46.5686 42.967 46.5686C43.2446 46.5686 43.5109 46.4585 43.7072 46.2621C43.9035 46.0658 44.0138 45.7993 44.0138 45.5217V28.7842C44.0155 28.6443 43.9892 28.5054 43.9363 28.3758C43.8833 28.2462 43.805 28.1288 43.7058 28.03C43.6067 27.9312 43.4887 27.8531 43.3589 27.8007C43.2291 27.7483 43.0902 27.7226 42.9502 27.7248ZM49.2315 27.7248C48.9545 27.7292 48.6906 27.8432 48.4976 28.0417C48.3045 28.2403 48.198 28.5073 48.2013 28.7842V45.5217C48.2013 45.7993 48.3116 46.0658 48.508 46.2621C48.7043 46.4585 48.9706 46.5686 49.2482 46.5686C49.5259 46.5686 49.7921 46.4585 49.9885 46.2621C50.1848 46.0658 50.2951 45.7993 50.2951 45.5217V28.7842C50.2968 28.6443 50.2704 28.5054 50.2175 28.3758C50.1646 28.2462 50.0862 28.1288 49.9871 28.03C49.8879 27.9312 49.77 27.8531 49.6402 27.8007C49.5104 27.7483 49.3714 27.7226 49.2315 27.7248ZM55.4687 29.8186H66.0003L75.1626 40.2853H55.4687V29.8186ZM55.5316 42.379H76.4062V46.5624H73.3222C73.0445 46.5624 72.7782 46.6726 72.5819 46.8689C72.3856 47.0652 72.2753 47.3317 72.2753 47.6093V51.8073C72.2753 52.0849 72.3856 52.3511 72.5819 52.5475C72.7782 52.7438 73.0445 52.8542 73.3222 52.8542H76.4062V57.0373H70.4977C69.9058 55.7883 68.9726 54.7323 67.8059 53.9913C66.6392 53.2503 65.2866 52.8546 63.9045 52.8498C62.5227 52.855 61.1706 53.251 60.0043 53.992C58.838 54.733 57.9051 55.7887 57.3133 57.0373H55.5295V42.379H55.5316ZM58.5466 45.5237C58.2689 45.5379 58.0083 45.6619 57.8219 45.8683C57.6356 46.0746 57.5389 46.3464 57.5531 46.624C57.5672 46.9017 57.6911 47.1623 57.8975 47.3486C58.1038 47.5349 58.3757 47.6316 58.6533 47.6175H60.7806C61.0582 47.6175 61.3245 47.5074 61.5208 47.311C61.7172 47.1147 61.8275 46.8483 61.8275 46.5706C61.8275 46.293 61.7172 46.0268 61.5208 45.8304C61.3245 45.6341 61.0582 45.5237 60.7806 45.5237H58.6533C58.6185 45.522 58.5835 45.522 58.5487 45.5237H58.5466ZM74.369 48.6562H76.4062V50.7604H74.369V48.6562ZM13.5937 50.7561H53.375V57.0603H35.9676C35.3776 55.8044 34.4433 54.7419 33.2731 53.9961C32.103 53.2504 30.7452 52.8521 29.3576 52.8478C27.9704 52.8525 26.613 53.2509 25.4433 53.9966C24.2735 54.7424 23.3395 55.8047 22.7497 57.0603H13.5937V54.9415H16.7783C17.056 54.9415 17.3223 54.8312 17.5186 54.6348C17.7149 54.4385 17.8252 54.1723 17.8252 53.8947C17.8252 53.617 17.7149 53.3508 17.5186 53.1545C17.3223 52.9581 17.056 52.8478 16.7783 52.8478H13.5937V50.7561ZM29.3597 54.9436C32.2616 54.9436 34.5941 57.2739 34.5941 60.1779C34.5941 63.0799 32.2616 65.4123 29.3597 65.4123C28.6717 65.4145 27.99 65.2807 27.354 65.0185C26.7179 64.7562 26.14 64.3707 25.6535 63.8842C25.167 63.3977 24.7815 62.8198 24.5192 62.1838C24.257 61.5477 24.1231 60.866 24.1253 60.1779C24.1253 57.2739 26.4557 54.9436 29.3597 54.9436ZM63.9066 54.9436C66.8085 54.9436 69.1409 57.2739 69.1409 60.1779C69.1409 63.0799 66.8085 65.4123 63.9066 65.4123C63.2186 65.4145 62.5369 65.2807 61.9008 65.0185C61.2648 64.7562 60.6869 64.3707 60.2004 63.8842C59.7139 63.3977 59.3284 62.8198 59.0661 62.1838C58.8039 61.5477 58.67 60.866 58.6722 60.1779C58.6722 57.2739 61.0025 54.9436 63.9066 54.9436ZM29.3597 57.0373C27.6365 57.0373 26.2191 58.4548 26.2191 60.1779C26.2191 61.899 27.6365 63.3186 29.3597 63.3186C31.0807 63.3186 32.5003 61.899 32.5003 60.1779C32.5003 58.4548 31.0807 57.0373 29.3597 57.0373ZM63.9066 57.0373C62.1834 57.0373 60.7659 58.4548 60.7659 60.1779C60.7659 61.899 62.1834 63.3186 63.9066 63.3186C65.6276 63.3186 67.0472 61.899 67.0472 60.1779C67.0472 58.4548 65.6276 57.0373 63.9066 57.0373ZM29.3597 59.1311C29.948 59.1311 30.4066 59.5854 30.4066 60.1779C30.4066 60.7684 29.948 61.2248 29.3597 61.2248C29.2217 61.2268 29.0846 61.2011 28.9567 61.1492C28.8288 61.0973 28.7126 61.0203 28.615 60.9227C28.5174 60.8251 28.4404 60.7089 28.3885 60.581C28.3366 60.4531 28.3108 60.316 28.3128 60.1779C28.3128 59.5854 28.7672 59.1311 29.3597 59.1311ZM63.9066 59.1311C64.4949 59.1311 64.9534 59.5854 64.9534 60.1779C64.9534 60.7684 64.4949 61.2248 63.9066 61.2248C63.7685 61.2268 63.6315 61.2011 63.5036 61.1492C63.3757 61.0973 63.2595 61.0203 63.1619 60.9227C63.0643 60.8251 62.9873 60.7089 62.9354 60.581C62.8834 60.4531 62.8577 60.316 62.8597 60.1779C62.8597 59.5854 63.314 59.1311 63.9066 59.1311Z" fill="#6398E7"/>
</g>
<defs>
<clipPath id="clip0_6_14">
<rect width="67" height="67" fill="white" transform="translate(11.5 11)"/>
</clipPath>
</defs>
</svg>
