<svg width="91" height="90" viewBox="0 0 91 90" fill="none" xmlns="http://www.w3.org/2000/svg">
<circle cx="45.5" cy="45" r="45" fill="#D3E2F8" fill-opacity="0.5"/>
<path d="M31.4199 68.8333C30.1015 68.8333 28.8199 68.5744 27.6098 68.062C27.4466 67.9928 27.3028 67.8847 27.1911 67.747C27.0794 67.6093 27.0032 67.4463 26.9691 67.2723C26.9351 67.0982 26.9444 66.9185 26.996 66.7489C27.0476 66.5793 27.1401 66.4249 27.2653 66.2994L31.0949 62.4709V59.4062H28.0313L24.2017 63.2347C24.0766 63.3606 23.9224 63.4537 23.7526 63.5055C23.5828 63.5573 23.4029 63.5662 23.2288 63.5315C23.0546 63.4978 22.8914 63.4216 22.7536 63.3097C22.6159 63.1979 22.5078 63.0538 22.4391 62.8902C21.6761 61.1037 21.4665 59.1294 21.8373 57.2225C22.2081 55.3156 23.1422 53.5637 24.5191 52.1933C25.4213 51.286 26.4945 50.5667 27.6766 50.077C28.8588 49.5874 30.1263 49.3372 31.4058 49.3409C32.4751 49.3409 33.5205 49.511 34.5215 49.849L50.3414 34.0291C49.757 32.3094 49.6668 30.4603 50.081 28.6919C50.4952 26.9235 51.3973 25.3068 52.6847 24.0256C53.5873 23.1187 54.6609 22.3997 55.8431 21.9103C57.0254 21.4209 58.293 21.1707 59.5725 21.1742C60.8909 21.1742 62.1725 21.4332 63.3826 21.9456C63.5459 22.0147 63.6897 22.1229 63.8014 22.2606C63.9131 22.3983 63.9893 22.5613 64.0233 22.7353C64.0573 22.9093 64.0481 23.089 63.9964 23.2587C63.9448 23.4283 63.8523 23.5826 63.7271 23.7082L59.8975 27.5388V30.6036H62.9623L66.7908 26.774C66.9157 26.6479 67.07 26.5547 67.2398 26.5029C67.4095 26.4511 67.5895 26.4423 67.7636 26.4772C68.1168 26.5454 68.4136 26.7859 68.5533 27.1185C69.3163 28.905 69.526 30.8793 69.1552 32.7862C68.7844 34.6931 67.8502 36.4449 66.4733 37.8153C65.5709 38.7223 64.4976 39.4413 63.3155 39.9307C62.1334 40.4201 60.866 40.6703 59.5866 40.6667C58.5273 40.6685 57.4748 40.4969 56.4709 40.1586L40.651 55.9785C41.2353 57.6983 41.3254 59.5475 40.9109 61.3159C40.4965 63.0843 39.5942 64.7009 38.3067 65.982C37.4043 66.889 36.331 67.6079 35.1489 68.0974C33.9668 68.5868 32.6993 68.8369 31.4199 68.8333ZM30.0798 66.5497C30.5222 66.6279 30.9707 66.6671 31.4199 66.6667C32.4147 66.6694 33.4001 66.475 34.3193 66.0945C35.2384 65.7141 36.073 65.1552 36.7748 64.4502C37.8459 63.3841 38.5726 62.0213 38.8609 60.5379C39.1493 59.0545 38.986 57.5187 38.3923 56.1291C38.3082 55.9304 38.2853 55.7112 38.3266 55.4995C38.3679 55.2877 38.4715 55.0932 38.6241 54.9407L55.4331 38.1317C55.5855 37.979 55.7801 37.8753 55.9918 37.834C56.2036 37.7927 56.4229 37.8156 56.6215 37.8998C57.5629 38.2974 58.5607 38.5 59.5866 38.5C60.5815 38.5028 61.567 38.3083 62.4862 37.9276C63.4054 37.547 64.2399 36.9878 64.9415 36.2824C65.8084 35.4198 66.4527 34.3594 66.8188 33.1926C67.1849 32.0257 67.2619 30.7874 67.0432 29.5842L64.1756 32.4517C63.9725 32.6549 63.697 32.7691 63.4097 32.7692H58.8142C58.5269 32.7692 58.2513 32.655 58.0481 32.4519C57.845 32.2487 57.7308 31.9731 57.7308 31.6858V27.0903C57.7308 26.8022 57.8446 26.527 58.0483 26.3244L60.9148 23.459C60.472 23.3808 60.0232 23.3416 59.5736 23.342C58.5787 23.3392 57.5931 23.5337 56.6737 23.9142C55.7544 24.2946 54.9196 24.8535 54.2176 25.5585C53.1469 26.6248 52.4206 27.9877 52.1325 29.471C51.8444 30.9543 52.0077 32.49 52.6013 33.8796C52.6853 34.0782 52.7082 34.2975 52.6669 34.5092C52.6256 34.7209 52.522 34.9155 52.3694 35.068L35.5593 51.877C35.4068 52.0296 35.2123 52.1331 35.0005 52.1744C34.7888 52.2157 34.5696 52.1929 34.3709 52.1088C33.4329 51.7116 32.4245 51.5075 31.4058 51.5087C30.4109 51.5057 29.4254 51.7002 28.5062 52.0809C27.587 52.4615 26.7524 53.0208 26.0509 53.7262C25.184 54.5888 24.5398 55.6492 24.1737 56.8161C23.8075 57.9829 23.7305 59.2213 23.9493 60.4245L26.8168 57.5569C27.02 57.3537 27.2955 57.2396 27.5828 57.2395H32.1793C32.4667 57.2395 32.7422 57.3536 32.9454 57.5568C33.1485 57.76 33.2627 58.0355 33.2627 58.3228V62.9194C33.2627 63.2076 33.1489 63.4827 32.9453 63.6853L30.0798 66.5497ZM65 68.8333C64.4306 68.8348 63.8665 68.7234 63.3405 68.5055C62.8144 68.2875 62.3368 67.9674 61.9353 67.5637L51.9773 57.6046C51.8766 57.5041 51.7967 57.3847 51.7422 57.2532C51.6877 57.1218 51.6596 56.9809 51.6596 56.8387C51.6596 56.6964 51.6877 56.5555 51.7422 56.4241C51.7967 56.2927 51.8766 56.1733 51.9773 56.0727L56.5728 51.4772C56.6733 51.3766 56.7927 51.2967 56.9241 51.2422C57.0555 51.1877 57.1964 51.1596 57.3387 51.1596C57.481 51.1596 57.6218 51.1877 57.7533 51.2422C57.8847 51.2967 58.0041 51.3766 58.1046 51.4772L68.0637 61.4363C68.4675 61.8376 68.7876 62.315 69.0056 62.8409C69.2235 63.3668 69.3349 63.9307 69.3333 64.5C69.3348 65.0694 69.2233 65.6334 69.0054 66.1595C68.7875 66.6856 68.4674 67.1632 68.0637 67.5647C67.6623 67.9683 67.1848 68.2882 66.6589 68.5059C66.133 68.7237 65.5692 68.835 65 68.8333ZM54.2761 56.8387L63.4682 66.0318C64.2861 66.8497 65.7128 66.8508 66.5318 66.0318C66.9413 65.6223 67.1667 65.0785 67.1667 64.5C67.1667 63.9215 66.9413 63.3766 66.5329 62.9682L57.3398 53.775L54.2761 56.8387Z" fill="#6398E7"/>
<path d="M31.1762 29.1432L43.537 41.5041L42.0052 43.037L29.6443 30.6762L31.1762 29.1432ZM50.4443 60.2208C50.2299 60.2213 50.0201 60.1581 49.8417 60.0391C49.6632 59.9201 49.5241 59.7509 49.4421 59.5527C49.36 59.3546 49.3387 59.1365 49.3807 58.9262C49.4228 58.7159 49.5264 58.5229 49.6784 58.3716L58.8705 49.1795C58.9711 49.0789 59.0905 48.9991 59.2219 48.9447C59.3533 48.8903 59.4942 48.8622 59.6364 48.8622C59.7787 48.8622 59.9195 48.8903 60.0509 48.9447C60.1824 48.9991 60.3018 49.0789 60.4023 49.1795C60.5029 49.2801 60.5827 49.3995 60.6372 49.5309C60.6916 49.6623 60.7196 49.8032 60.7196 49.9454C60.7196 50.0877 60.6916 50.2285 60.6372 50.3599C60.5827 50.4913 60.5029 50.6108 60.4023 50.7113L51.2103 59.9034C51.1098 60.0042 50.9904 60.0841 50.859 60.1385C50.7275 60.193 50.5866 60.221 50.4443 60.2208Z" fill="#6398E7"/>
<path d="M28.8784 32.5254C28.7361 32.5256 28.5952 32.4976 28.4638 32.4431C28.3323 32.3886 28.213 32.3087 28.1125 32.208L21.9841 26.0796C21.883 25.9793 21.8028 25.86 21.748 25.7285C21.6933 25.5971 21.6651 25.4561 21.6651 25.3137C21.6651 25.1713 21.6933 25.0303 21.748 24.8988C21.8028 24.7674 21.883 24.648 21.9841 24.5477L25.0477 21.4841C25.1483 21.3834 25.2677 21.3035 25.3991 21.249C25.5305 21.1945 25.6714 21.1664 25.8137 21.1664C25.9559 21.1664 26.0968 21.1945 26.2282 21.249C26.3597 21.3035 26.4791 21.3834 26.5796 21.4841L32.708 27.6125C32.8089 27.7129 32.8891 27.8322 32.9437 27.9637C32.9984 28.0951 33.0265 28.2361 33.0265 28.3784C33.0265 28.5208 32.9984 28.6617 32.9437 28.7932C32.8891 28.9246 32.8089 29.044 32.708 29.1443L29.6443 32.208C29.544 32.3089 29.4246 32.389 29.2932 32.4435C29.1617 32.4979 29.0207 32.5258 28.8784 32.5254ZM24.2818 25.3137L28.8784 29.9102L30.4102 28.3784L25.8137 23.7818L24.2818 25.3137ZM48.1357 46.1007L56.0874 54.0523L54.5556 55.5852L46.6039 47.6336L48.1357 46.1007Z" fill="#6398E7"/>
</svg>
